# xmcd
# 
# Track frame offsets:
#     150
#     10252
#     22192
#     35203
#     46103
#     56668
#     69174
#     79637
#     89750
#     101690
#     114354
#     127484
#     136986
#     145915
#     157071
#     168693
#     180939
#     190658
#     200544
#     213551
#     228659
#     240485
#     252553
#     266333
#     287957
#     300831
#     315907
#     336071
# 
# Disc length: 4673
# 
# Revision: 2
# Processed by: cddbd v1.5.2PL0 Copyright (c) Steve Scherf et al.
# Submitted via: fre:ac v1.0.31
# 
DISCID=97123f1c
DTITLE=Various Artist - Bluesin' By The Bayou - I'm Not Jiving
DYEAR=2016
DGENRE=Blues
TTITLE0=Henry Gray - I'm a Lucky Lucky Man
TTITLE1=Juke Boy Bonner - I'm Not Jiving
TTITLE2=Lightnin' Slim - Miss Fannie Brown
TTITLE3=Slim Harpo - Things Gonna Change
TTITLE4=Boogie Jake - I Don't Know Why
TTITLE5=Lazy Lester - I Told My Little Woman
TTITLE6=Lonesome Sundown - I'm a Mojo Man
TTITLE7=Boozoo Chavis - Oh Yeah She's Gone
TTITLE8=Clifton Chenier - Everbody Calls Me Crazy
TTITLE9=Blue Charlie Morris - Don't Bring No Friend
TTITLE10=Lonesome Sundown - No Use to Worry
TTITLE11=Jimmy Anderson - Baby Let's Burn
TTITLE12=Slim Harpo - Wild About My Baby
TTITLE13=Silas Hogan - (Roaches in My Kitchen) Trouble at Home Blues
TTITLE14=Elton Anderson - I Want to Talk to You (Baby)
TTITLE15=Lazy Lester - Patrol Wagon
TTITLE16=Ramblin' Hi Harris - Early One Morning
TTITLE17=Schoolboy Cleve - She's Gone
TTITLE18=Chris Kenner - Don't Let Her Pin That Charge on Me
TTITLE19=Clarence Garlow - I Feel Like Calling You
TTITLE20=Boozoo Chavis - Bye Bye Catin
TTITLE21=Clifton Chenier - Night and Day My Love
TTITLE22=Henry Clement - Late Hour Blues
TTITLE23=Henry Gray - Sonny Boy's Cold Chills
TTITLE24=Elton Anderson - Prove Me Guilty
TTITLE25=Johnny Sonnier - Sitting Here All Alone
TTITLE26=Vince Monroe (Mr. Calhoun) - Prisoner's Song
TTITLE27=Jimmy Anderson - Frankie and Johnny
EXTD=
EXTT0=
EXTT1=
EXTT2=
EXTT3=
EXTT4=
EXTT5=
EXTT6=
EXTT7=
EXTT8=
EXTT9=
EXTT10=
EXTT11=
EXTT12=
EXTT13=
EXTT14=
EXTT15=
EXTT16=
EXTT17=
EXTT18=
EXTT19=
EXTT20=
EXTT21=
EXTT22=
EXTT23=
EXTT24=
EXTT25=
EXTT26=
EXTT27=
PLAYORDER=
